<!DOCTYPE svg PUBLIC "-//W3C//DTD SVG 1.1//EN" "http://www.w3.org/Graphics/SVG/1.1/DTD/svg11.dtd">
<!-- Uploaded to: SVG Repo, www.svgrepo.com, Transformed by: SVG Repo Mixer Tools -->
<svg fill="#E85D5D" version="1.1" id="Capa_1" xmlns="http://www.w3.org/2000/svg" xmlns:xlink="http://www.w3.org/1999/xlink" width="800px" height="800px" viewBox="-3.19 -3.19 38.33 38.33" xml:space="preserve">
<g id="SVGRepo_bgCarrier" stroke-width="0" transform="translate(3.8333999999999993,3.8333999999999993), scale(0.76)">
<path transform="translate(-3.19, -3.19), scale(1.1978125)" d="M16,31.281669159730274C19.758000156828015,31.38988968962635,21.87727919319722,27.17903287913847,24.328180051841542,24.328180051841542C26.500726123233175,21.8011055321951,28.974663382400152,19.328581898389128,29.137772566328444,16C29.307377052843353,12.538867952724832,27.568557581906937,9.330247500180935,25.186442165843133,6.813557834156866C22.729096705236888,4.217388108351587,19.566738080602974,2.3588232814564285,16,2.120027506103119C12.185122350104319,1.8646186014686503,8.379797345911612,2.9856910865662973,5.4952155201868,5.495215520186797C2.4013503446438333,8.186811987692705,-0.5384457039642668,11.940989632941616,0.04561602945129195,15.999999999999996C0.6024550699891907,19.869822844082883,5.314607520262797,21.157551657338026,8.138053063808089,23.861946936191906C10.843298174004584,26.45312568971285,12.255546630028922,31.173838741699782,16,31.281669159730274" fill="#F3D1C4" strokewidth="0"/>
</g>
<g id="SVGRepo_tracerCarrier" stroke-linecap="round" stroke-linejoin="round" stroke="#CCCCCC" stroke-width="0.19166999999999998"/>
<g id="SVGRepo_iconCarrier"> <g> <g> <rect x="23.622" y="17.643" width="5.19" height="1.862"/> <path d="M30.927,29.29v-7.65v-0.309V1.647H0.99v19.2v0.792v7.348H0v1.008h4.139v-1.008H2.284V21.64h27.353v7.65h-1.828v1.008 h4.137V29.29H30.927z M29.637,20.401H2.28V2.937h27.357V20.401L29.637,20.401z"/> <path d="M6.018,7.958C6.37,7.922,6.705,7.864,7.03,7.791c-0.158,0.426-0.204,0.878-0.071,1.35c0.114,0.405,0.412,0.61,0.806,0.695 c-0.163,0.352-0.042,0.846,0.316,1.022c0.274,0.136,1.25,0.542,1.233,0.561c-0.402,0.485-0.2,1.439,0.57,1.376 c0.36-0.03,0.72-0.071,1.079-0.11c-0.079,0.019-0.147,0.038-0.196,0.059c-0.915,0.392-0.196,1.592,0.621,1.473 c1.019-0.148,2.003-0.366,2.993-0.366c-0.587,0.403-1.186,0.788-1.682,1.33c-0.375,0.408-0.275,1.236,0.355,1.347 c1.794,0.315,3.321-0.146,4.83-0.762c0.078,0.055,0.166,0.1,0.276,0.117c2.537,0.393,4.945,0.208,7.466-0.162 c1.024-0.149,0.589-1.703-0.429-1.554c-1.323,0.194-2.616,0.334-3.918,0.345c0.154-0.104,0.307-0.214,0.457-0.342 c0.627-0.53-0.039-1.571-0.783-1.346c-1.812,0.547-3.475,1.696-5.32,2.091c0.432-0.299,0.852-0.612,1.215-1.012 c0.42-0.463,0.23-1.149-0.354-1.347c-0.853-0.289-1.709-0.339-2.567-0.288c0.015-0.074,0.036-0.142,0.042-0.225 c0.02-0.28-0.169-0.558-0.398-0.695c-0.739-0.444-1.596-0.411-2.445-0.311c-0.087-0.483-0.594-0.792-1.266-1.114 c0.694-0.452,1.637-0.686,2.335-0.971c0.766-0.312,0.77-1.684-0.213-1.583c-0.859,0.088-1.643,0.136-2.449,0.486 c-2.082,0.901,0.141-0.863,0.653-1.26c0.791-0.613-0.217-1.586-0.977-1.266C8.191,5.8,7.127,6.142,6.018,6.347 C4.993,6.449,4.983,8.062,6.018,7.958z"/> </g> </g> </g>
</svg>