<!DOCTYPE svg PUBLIC "-//W3C//DTD SVG 1.1//EN" "http://www.w3.org/Graphics/SVG/1.1/DTD/svg11.dtd">
<!-- Uploaded to: SVG Repo, www.svgrepo.com, Transformed by: SVG Repo Mixer Tools -->
<svg fill="#E85D5D" version="1.1" id="Capa_1" xmlns="http://www.w3.org/2000/svg" xmlns:xlink="http://www.w3.org/1999/xlink" width="203px" height="203px" viewBox="-3.13 -3.13 37.57 37.57" xml:space="preserve" stroke="#E85D5D" stroke-width="0.281808" transform="matrix(1, 0, 0, 1, 0, 0)rotate(0)">
<g id="SVGRepo_bgCarrier" stroke-width="0" transform="translate(1.5655999999999999,1.5655999999999999), scale(0.9)">
<path transform="translate(-3.13, -3.13), scale(1.1740625)" d="M16,28.20159693559011C19.466963783960235,28.119696875891446,23.61258710106226,28.466010350777868,25.68667507481982,25.686675074819824C27.697816589726386,22.991689795484277,25.367817185840106,19.35243430174249,25.10548132989142,16C24.880517503171486,13.125149184735658,26.14349213631994,9.920524730133813,24.280686817645126,7.719313182354874C22.34577553296648,5.432896549836158,18.97402800693553,5.596378640219004,16,5.240372866392136C12.37520218599443,4.80646674723938,7.997019019875394,2.8351972110425328,5.467252614608455,5.4672526146084515C2.9376559120068553,8.099131453723055,5.591950700807259,12.35017617218475,5.658521922098265,15.999999999999998C5.722708373938829,19.519076814387017,3.568911483671232,23.470393533475427,5.844595629939288,26.155404370060708C8.165624116598485,28.893915621247764,12.411207752273416,28.286374948182782,16,28.20159693559011" fill="#F3D1C4" strokewidth="0"/>
</g>
<g id="SVGRepo_tracerCarrier" stroke-linecap="round" stroke-linejoin="round" stroke="#CCCCCC" stroke-width="0.062624"/>
<g id="SVGRepo_iconCarrier"> <g> <g> <rect x="23.695" y="15.25" width="5.053" height="1.879"/> <polygon points="2.931,0.463 2.931,3.415 4.22,3.018 4.22,1.752 30.021,1.752 30.021,18.199 9.49,18.199 9.424,19.49 31.312,19.49 31.312,0.463 "/> <circle cx="4.982" cy="7.526" r="3.821"/> <polygon points="8.226,29.104 8.226,22.302 8.226,21.661 8.226,20.79 8.471,20.79 8.824,13.885 15.415,10.471 14.55,8.8 8.523,11.921 6.373,11.921 4.917,13.611 3.508,11.921 0.411,12.491 0.214,19.363 1.524,19.363 1.596,20.79 1.797,20.79 1.797,21.661 1.797,22.302 1.797,29.104 1.533,29.104 0,29.436 0,30.85 1.305,30.85 2.829,30.6 2.844,30.85 4.531,30.85 4.531,29.275 4.531,29.104 4.531,22.302 5.491,22.302 5.491,29.104 5.491,29.275 5.491,30.85 7.18,30.85 7.194,30.6 8.718,30.85 10.023,30.85 10.023,29.436 8.489,29.104 "/> <path d="M17.973,4.804c0.119,0.08,0.237,0.168,0.359,0.263c0.061,0.048,0.12,0.095,0.182,0.143l0.17,0.147 c0.03,0.027,0.055,0.045,0.09,0.08l0.082,0.081c0.057,0.055,0.111,0.108,0.162,0.163c0.104,0.111,0.203,0.221,0.295,0.331 c0.09,0.11,0.179,0.216,0.256,0.323c0.016,0.023,0.031,0.044,0.048,0.066c0.243-0.395,0.254-1.578-0.798-2.373 c-1.143-0.866-2.734-0.478-3.402-0.798c0.674,1.031,0.544,1.719,1.676,2.85c0.758,0.756,1.463,0.803,1.939,0.672 c0.966,0.932,1.117,2.351,1.117,3.71c-0.1-0.08-0.219-0.143-0.357-0.143c-0.393,0-0.678,0.22-0.812,0.534 c-0.862-0.293-1.435,0.388-1.484,0.962c-0.41-0.152-0.93,0.32-0.93,0.73c0,0.404,0.318,0.732,0.72,0.749l6.346,0.012 c0,0,0.677-0.365,0.677-0.761c0-0.416-0.336-0.753-0.752-0.753c-0.058,0-0.113,0.008-0.166,0.021 c0.004-0.03-0.072-1.307-1.184-0.794c-0.086-0.4-0.199-0.7-0.865-0.7c-0.328,0-0.552,0.12-0.695,0.24 c0.28-1.413,0.709-2.889,1.961-3.62c0.013-0.008,0.02-0.018,0.028-0.028c0.388,0.311,1.063,0.55,2.066,0.133 c1.478-0.613,1.62-1.298,2.637-1.993c-0.739,0.041-2.063-0.926-3.45-0.562c-1.271,0.334-1.715,1.431-1.642,1.889 c0.022-0.014,0.046-0.027,0.069-0.042c0.11-0.068,0.233-0.133,0.359-0.201c0.125-0.067,0.26-0.13,0.396-0.193 c0.068-0.032,0.142-0.061,0.212-0.088l0.106-0.044c0.047-0.018,0.074-0.025,0.112-0.039L23.716,5.7 c0.075-0.021,0.147-0.042,0.224-0.063c0.146-0.041,0.291-0.077,0.432-0.106c0.277-0.063,0.54-0.11,0.766-0.145 c0.452-0.069,0.762-0.082,0.762-0.082s-0.07,0.03-0.194,0.083c-0.124,0.052-0.302,0.12-0.513,0.202 c-0.108,0.039-0.223,0.081-0.346,0.125c-0.123,0.043-0.25,0.089-0.384,0.136c-0.132,0.046-0.269,0.095-0.403,0.145 c-0.138,0.046-0.279,0.1-0.42,0.154c-0.132,0.049-0.27,0.115-0.404,0.169c-0.133,0.061-0.36,0.14-0.489,0.195 c-0.156,0.066-0.257,0.101-0.354,0.154c-1.111,0.648-1.604,1.796-1.902,3.01c-0.055-1.141-0.293-2.248-1.117-3.064 c0,0,0.001,0,0.003-0.001c-0.11-0.104-0.228-0.217-0.347-0.336c-0.098-0.102-0.201-0.202-0.303-0.31 c-0.104-0.101-0.205-0.213-0.309-0.31c-0.109-0.104-0.221-0.208-0.327-0.302C17.98,5.256,17.873,5.16,17.77,5.067 c-0.104-0.095-0.207-0.187-0.303-0.273c-0.096-0.088-0.188-0.171-0.27-0.248c-0.166-0.156-0.305-0.287-0.398-0.382 c-0.094-0.095-0.146-0.151-0.146-0.151s0.279,0.129,0.67,0.366C17.516,4.498,17.74,4.639,17.973,4.804z M20.469,10.754 c-0.021,0.033-0.033,0.056-0.033,0.056s-0.004-0.007-0.008-0.015L20.469,10.754z"/> <rect x="10.768" y="5.33" width="5.104" height="0.322"/> <rect x="22.48" y="9.282" width="5.104" height="0.323"/> <rect x="12.433" y="15.495" width="5.104" height="0.322"/> </g> </g> </g>
</svg>