<!DOCTYPE svg PUBLIC "-//W3C//DTD SVG 1.1//EN" "http://www.w3.org/Graphics/SVG/1.1/DTD/svg11.dtd">
<!-- Uploaded to: SVG Repo, www.svgrepo.com, Transformed by: SVG Repo Mixer Tools -->
<svg fill="#E85D5D" version="1.1" id="Capa_1" xmlns="http://www.w3.org/2000/svg" xmlns:xlink="http://www.w3.org/1999/xlink" width="800px" height="800px" viewBox="-36.32 -36.32 435.86 435.86" xml:space="preserve">
<g id="SVGRepo_bgCarrier" stroke-width="0">
<path transform="translate(-36.32, -36.32), scale(13.620625)" d="M16,28.706588049664308C18.51519381731228,28.436038030388175,21.634164319105793,29.274334211282103,23.317131630367214,27.3856790599107C25.07016072534018,25.41839935782126,23.292543813378394,22.1997551990206,24.047736652351002,19.675278181886288C24.648135702471755,17.66824961259912,26.696104563974814,16.421091436134326,27.20507932279225,14.388952810890581C27.89262350253077,11.643855809509958,29.213370230642383,8.291548837750797,27.454108269382473,6.074958686697801C25.713115771696287,3.8813872297985403,22.160466411058596,4.267747181836532,19.371227099575563,4.518654887577878C17.15118487906397,4.718360125455555,15.365611790575917,6.185332859681932,13.45549517168692,7.334212376922052C12.006663567746271,8.205642391842147,10.828873362870825,9.302340626255369,9.560077669952658,10.419775535819761C8.06932575480508,11.732688434865455,5.622491810979083,12.501089247330135,5.353906947796929,14.469322903242503C5.084973335031569,16.44011225294572,8.018211013357433,17.541315355436385,8.319989572871332,19.50734324180941C8.815360052627783,22.73458436475709,5.5036216285826,26.570333599638264,7.596094370503362,29.076732411116073C9.430259872278668,31.27372649452923,13.154432084812695,29.012675178618906,16,28.706588049664308" fill="#F3D1C4" strokewidth="0"/>
</g>
<g id="SVGRepo_tracerCarrier" stroke-linecap="round" stroke-linejoin="round"/>
<g id="SVGRepo_iconCarrier"> <g> <g> <path d="M345.744,165.639h-6.011c-6.311,0-11.728,3.864-13.816,9.629h-17.402c-1.213-31.931-13.727-62.194-35.494-85.751 l9.487-9.482c5.44,2.564,12.256,1.36,16.592-2.952l4.239-4.26c2.792-2.774,4.329-6.477,4.329-10.431 c0-3.945-1.537-7.647-4.329-10.427c-5.332-5.344-15.517-5.344-20.861,0l-4.263,4.254c-4.456,4.452-5.537,11.019-2.942,16.579 l-9.488,9.467c-23.586-21.938-53.965-34.561-86.057-35.786V34.587c2.005-0.729,3.813-1.879,5.32-3.387 c2.796-2.78,4.32-6.482,4.32-10.43v-6.023C189.367,6.611,182.753,0,174.626,0c-8.137,0-14.76,6.629-14.76,14.76v6.017 c0,6.293,3.876,11.715,9.644,13.805v11.917c-31.934,1.213-62.198,13.739-85.767,35.491l-5.533-5.521 c1.126-2.096,1.696-4.401,1.696-6.788c0-3.945-1.537-7.647-4.33-10.428l-4.26-4.267c-5.338-5.344-15.496-5.344-20.858,0 c-5.737,5.768-5.737,15.12,0,20.873l4.254,4.264c4.146,4.113,10.572,5.416,15.934,3.245l5.861,5.861 c-21.929,23.557-34.563,53.938-35.8,86.055h-3.414c-2.089-5.768-7.512-9.628-13.814-9.628h-6.02 c-8.137,0-14.745,6.614-14.745,14.745c0,8.127,6.615,14.745,14.745,14.745h6.02c6.308,0,11.725-3.873,13.814-9.638h3.432 c1.237,32.12,13.868,62.498,35.801,86.061l-9.217,9.229c-5.449-2.438-12.439-1.201-16.546,2.906l-4.236,4.239 c-2.804,2.786-4.341,6.497-4.329,10.448c0,3.945,1.525,7.65,4.308,10.412c5.566,5.579,15.324,5.567,20.87,0l4.27-4.251 c4.45-4.468,5.54-11.013,2.951-16.573l9.172-9.175c23.557,21.761,53.815,34.274,85.754,35.488v14.345 c-5.768,2.096-9.644,7.506-9.649,13.817v6.017c0,8.131,6.629,14.748,14.771,14.748c3.939,0,7.642-1.537,10.416-4.317 c2.783-2.78,4.32-6.491,4.32-10.431v-6.022c0-6.299-3.864-11.71-9.632-13.806v-14.345c32.083-1.22,62.474-13.847,86.061-35.782 l13.15,13.15c-2.161,5.422-0.948,11.721,3.23,15.937l4.275,4.239c5.555,5.584,15.271,5.597,20.849,0 c2.774-2.762,4.312-6.473,4.312-10.424c0-3.97-1.537-7.662-4.312-10.425l-4.239-4.264c-4.287-4.287-11.709-5.368-17.174-2.588 l-12.868-12.862c21.768-23.551,34.281-53.82,35.494-85.754h17.402c2.09,5.764,7.506,9.631,13.823,9.631h6.005 c8.13,0,14.747-6.617,14.747-14.744C360.492,172.256,353.875,165.639,345.744,165.639z M346.051,184.911v-9.046 c2.342,0.147,4.233,2.123,4.233,4.519C350.284,182.782,348.393,184.768,346.051,184.911z M59.91,301.782 c-1.66,1.388-4.654,1.285-6.179-0.21c-1.685-1.693-1.748-4.407-0.204-6.19L59.91,301.782z M68.887,67.121l-5.461-5.458 c0.234,0.159,0.469,0.342,0.679,0.552l4.249,4.26C68.557,66.68,68.74,66.893,68.887,67.121z M57.094,67.854 c-1.114-1.759-0.91-4.113,0.598-5.626c0.874-0.862,2.003-1.333,3.204-1.333c0.879,0,1.72,0.252,2.435,0.705L57.094,67.854z M179.739,224.915c8.368-0.973,16.354-4.299,22.923-9.56l55.893,55.905c-21.642,20.014-49.432,31.579-78.816,32.779V224.915z M187.266,185.5h21.569c-0.828,5.5-2.99,10.784-6.293,15.282L187.266,185.5z M179.739,135.867V56.73 c29.384,1.213,57.174,12.778,78.84,32.78l-55.917,55.919C196.069,140.164,188.106,136.825,179.739,135.867z M179.739,168.338 v-22.167c5.639,0.862,11.052,3.114,15.622,6.542L179.739,168.338z M169.516,193.042v21.563c-5.491-0.847-10.772-3.015-15.276-6.3 L169.516,193.042z M162.571,175.268h-22.161c0.85-5.629,3.107-11.031,6.536-15.615L162.571,175.268z M170.362,13.234 c0.627-1.753,2.306-3.015,4.27-3.015c1.96,0,3.639,1.267,4.267,3.015H170.362z M169.516,56.724v79.137 c-8.202,0.952-16.087,4.2-22.587,9.305L91.006,89.222C112.593,69.391,140.287,57.931,169.516,56.724z M130.106,175.268H50.969 c1.207-29.36,12.766-57.153,32.78-78.822l55.908,55.914C134.391,158.932,131.064,166.924,130.106,175.268z M130.106,185.5 c0.958,8.353,4.284,16.345,9.55,22.914l-55.908,55.923c-20.014-21.647-31.585-49.462-32.78-78.831h79.137V185.5z M146.935,215.62 c6.512,5.104,14.385,8.347,22.575,9.295v79.125c-29.223-1.194-56.917-12.651-78.51-32.498L146.935,215.62z M170.086,348.47v-0.925 h9.059v0.925c0,1.207-0.469,2.342-1.315,3.195c-0.861,0.864-2.005,1.339-3.203,1.339 C172.122,352.997,170.086,350.962,170.086,348.47z M209.844,208.078c5.116-6.51,8.353-14.376,9.308-22.578h79.144 c-1.214,29.22-12.671,56.913-32.511,78.519L209.844,208.078z M219.151,175.268c-0.955-8.202-4.197-16.06-9.313-22.572 l55.935-55.923c19.852,21.582,31.297,49.27,32.51,78.503h-79.131V175.268z M289.954,58.994c1.735-1.508,4.521-1.396,6.167,0.207 c0.853,0.85,1.314,1.987,1.314,3.206c0,1.111-0.402,2.162-1.135,2.981L289.954,58.994z M295.82,293.935l4.239,4.258 c0.877,0.87,1.346,2.005,1.346,3.2c0,1.207-0.492,2.354-1.321,3.206c-1.621,1.598-4.815,1.586-6.413,0.006l-0.265-0.27 l6.354-6.342l-4.588-4.575C295.412,293.574,295.616,293.742,295.82,293.935z M10.214,179.609c0-2.396,1.871-4.366,4.23-4.519 v9.046C12.091,183.983,10.214,182.008,10.214,179.609z"/> </g> </g> </g>
</svg>