<!DOCTYPE svg PUBLIC "-//W3C//DTD SVG 1.1//EN" "http://www.w3.org/Graphics/SVG/1.1/DTD/svg11.dtd">
<!-- Uploaded to: SVG Repo, www.svgrepo.com, Transformed by: SVG Repo Mixer Tools -->
<svg width="256px" height="256px" viewBox="-2.4 -2.4 28.80 28.80" xmlns="http://www.w3.org/2000/svg" aria-labelledby="supportIconTitle" stroke="#E85D5D" stroke-width="1" stroke-linecap="square" stroke-linejoin="miter" fill="none" color="#000000">
<g id="SVGRepo_bgCarrier" stroke-width="0" transform="translate(0,0), scale(1)">
<path transform="translate(-2.4, -2.4), scale(0.8999999999999999)" d="M16,28.442978954236757C18.09249423301766,28.577902855108306,20.37112919623305,30.883671060951464,22.095425212824285,29.690549180586277C24.000192546272714,28.3725506694983,22.806724217898992,25.12167007638603,23.81421726993059,23.03595283286753C24.502866859215633,21.610306948543656,26.713989998699574,21.1290627181178,26.98453393228668,19.56909142853864C27.265212985363334,17.950680479232066,25.181450849916867,16.67524917701682,25.20219254744542,15.032810589533243C25.226757031367217,13.087663321849742,27.139860804397475,11.53036570728826,27.1106154383668,9.58528318579652C27.078373284184174,7.4408870277832335,26.612226621313056,5.019077949667242,25.02986491014781,3.5714571933754993C23.47564427670498,2.1495812512611616,21.056651532705438,2.1460883639729125,18.950317164718196,2.1198490343556884C17.004976214493798,2.0956152549583567,14.96657507005873,2.3780412019239012,13.327244422835776,3.4256736363967075C11.772873453846522,4.4190116460743845,11.558285433597012,6.748582302050506,10.048594786628145,7.80859346291709C8.504566642417894,8.892714285180313,6.220193316539942,8.354248595939133,4.7056645788441855,9.479212404277757C3.051242656878822,10.708086270854027,1.1134503372159485,12.375761981118117,1.125353091166657,14.436611611800101C1.1377293939838653,16.57945176422852,3.3295393578342134,18.05910524422166,4.764411361930977,19.650664047279278C5.863375141582793,20.869633734298393,7.733054800488375,21.278864823924348,8.567907266475723,22.69188635486184C9.67469261190808,24.56516527172104,8.524010250276037,27.594851679194857,10.244786692807878,28.926420729616375C11.784152576048413,30.11761089048467,14.057605884999488,28.317733499845296,16,28.442978954236757" fill="#FCE8D9" strokewidth="0"/>
</g>
<g id="SVGRepo_tracerCarrier" stroke-linecap="round" stroke-linejoin="round"/>
<g id="SVGRepo_iconCarrier"> <title id="supportIconTitle">Support</title> <path stroke-linecap="round" d="M11 8L9.42229 7.21115C9.14458 7.07229 8.83835 7 8.52786 7H7.82843C7.29799 7 6.78929 7.21071 6.41421 7.58579L5.58579 8.41421C5.21071 8.78929 5 9.29799 5 9.82843L5 14.9296C5 15.5983 5.3342 16.2228 5.8906 16.5937L9.75746 19.1716C10.4944 19.663 11.4668 19.611 12.1472 19.044L17 15"/> <path d="M14.4549 12.9142C13.8515 12.1062 12.741 11.8739 11.8643 12.3721L10.009 13.4266C9.41298 13.7653 8.66412 13.6641 8.17937 13.1794V13.1794C7.54605 12.546 7.59324 11.5056 8.2813 10.9323L12.4437 7.46356C12.8032 7.16403 13.2562 7 13.7241 7H14.5279C14.8384 7 15.1446 7.07229 15.4223 7.21115L17.8944 8.44721C18.572 8.786 19 9.47852 19 10.2361L19 12.9796C19 14.9037 16.5489 15.718 15.3976 14.1764L14.4549 12.9142Z"/> <path d="M1 17V8"/> <path d="M1 17V8"/> <path d="M23 17V8"/> </g>
</svg>